<?xml version="1.0" standalone="no"?>
<!DOCTYPE svg PUBLIC "-//W3C//DTD SVG 20010904//EN"
 "http://www.w3.org/TR/2001/REC-SVG-20010904/DTD/svg10.dtd">
<svg version="1.0" xmlns="http://www.w3.org/2000/svg"
 width="307.000000pt" height="307.000000pt" viewBox="0 0 307.000000 307.000000"
 preserveAspectRatio="xMidYMid meet">
<metadata>
Created by potrace 1.14, written by Peter Selinger 2001-2017
</metadata>
<g transform="translate(0.000000,307.000000) scale(0.100000,-0.100000)"
fill="#000000" stroke="none">
<path d="M1270 3040 c-309 -55 -578 -196 -806 -424 -296 -296 -444 -655 -444
-1076 0 -421 148 -780 444 -1076 295 -294 656 -444 1071 -444 415 0 776 150
1071 444 296 296 444 655 444 1076 0 421 -148 780 -444 1076 -231 231 -500
371 -814 425 -150 25 -375 25 -522 -1z"/>
</g>
</svg>
